<?xml version="1.0" standalone="no"?>
<!DOCTYPE svg PUBLIC "-//W3C//DTD SVG 20010904//EN"
 "http://www.w3.org/TR/2001/REC-SVG-20010904/DTD/svg10.dtd">
<svg version="1.0" xmlns="http://www.w3.org/2000/svg"
 width="442.000000pt" height="214.000000pt" viewBox="0 0 442.000000 214.000000"
 preserveAspectRatio="xMidYMid meet">

<g transform="translate(0.000000,214.000000) scale(0.100000,-0.100000)"
fill="#000000" stroke="none">
<path d="M241 1888 c-5 -13 -25 -63 -45 -112 -41 -102 -39 -96 -26 -96 6 0 18
16 27 35 16 33 20 35 65 35 45 0 49 -2 65 -35 9 -19 22 -35 29 -35 8 0 -5 43
-34 115 -46 115 -64 136 -81 93z m27 -126 c-22 -2 -42 -1 -45 2 -3 3 5 31 18
62 l23 57 22 -59 22 -59 -40 -3z"/>
<path d="M446 1895 c-3 -9 -6 -35 -6 -58 0 -59 -18 -115 -41 -130 -20 -12 -28
-77 -9 -77 6 0 10 11 10 25 0 25 0 25 95 25 95 0 95 0 95 -25 0 -14 5 -25 10
-25 6 0 10 16 10 35 0 24 -5 35 -15 35 -11 0 -15 20 -17 103 l-3 102 -61 3
c-49 2 -63 0 -68 -13z m104 -100 l0 -95 -59 0 -59 0 13 38 c7 20 16 63 20 95
l7 57 39 0 39 0 0 -95z"/>
<path d="M658 1904 c-5 -4 -8 -56 -8 -116 l0 -108 44 0 c49 0 96 15 108 33 15
23 8 56 -14 72 -21 15 -22 17 -5 26 21 12 23 62 3 78 -17 15 -118 26 -128 15z
m106 -30 c9 -8 16 -22 16 -29 0 -20 -40 -45 -72 -45 -26 0 -28 2 -28 45 0 45
0 45 34 45 19 0 42 -7 50 -16z m7 -105 c18 -18 19 -23 6 -42 -10 -16 -26 -23
-56 -25 l-41 -3 0 45 c0 46 0 46 35 46 22 0 43 -8 56 -21z"/>
<path d="M914 1900 c-38 -15 -64 -59 -64 -106 0 -124 172 -155 210 -38 32 95
-55 181 -146 144z m79 -22 c34 -18 46 -40 47 -84 0 -52 -24 -83 -71 -90 -28
-5 -41 -1 -64 18 -24 21 -28 32 -28 73 0 40 4 52 27 72 30 25 56 29 89 11z"/>
<path d="M1120 1795 c0 -70 4 -115 10 -115 6 0 10 25 10 55 0 51 2 55 24 55
17 0 33 -14 61 -55 21 -30 45 -55 52 -55 16 0 13 6 -34 73 l-35 47 36 49 c20
27 36 51 36 55 0 18 -23 0 -55 -44 -26 -36 -43 -50 -61 -50 -22 0 -24 4 -24
50 0 28 -4 50 -10 50 -6 0 -10 -45 -10 -115z"/>
<path d="M1353 1802 c-24 -59 -43 -111 -43 -115 0 -19 18 -4 33 28 16 33 19
35 67 35 47 0 50 -2 64 -35 8 -19 20 -35 25 -35 14 0 17 -9 -33 115 -24 61
-50 111 -58 113 -8 1 -28 -36 -55 -106z m79 20 c10 -26 18 -50 18 -54 0 -5
-18 -8 -40 -8 -23 0 -40 5 -40 11 0 19 34 108 39 103 3 -3 13 -26 23 -52z"/>
<path d="M1530 1900 c0 -5 16 -10 35 -10 l35 0 0 -105 c0 -137 18 -139 22 -2
l3 102 38 3 c71 6 37 22 -48 22 -50 0 -85 -4 -85 -10z"/>
<path d="M1774 1891 c-61 -38 -67 -138 -13 -187 25 -23 107 -26 133 -5 24 20
13 25 -27 10 -62 -22 -117 18 -117 86 0 66 56 109 113 87 33 -13 47 -8 30 9
-21 21 -86 21 -119 0z"/>
<path d="M1950 1795 l0 -115 46 0 c71 0 104 23 104 71 0 35 -20 50 -75 57
l-45 5 0 48 c0 37 -4 49 -15 49 -12 0 -15 -19 -15 -115z m114 -21 c33 -33 6
-74 -50 -74 -34 0 -34 0 -34 45 0 45 0 45 34 45 19 0 42 -7 50 -16z"/>
<path d="M2147 1903 c-4 -3 -7 -55 -7 -115 0 -89 3 -108 15 -108 12 0 15 13
15 55 0 48 2 55 20 55 13 0 36 -21 63 -55 51 -66 82 -75 38 -11 -17 25 -38 52
-47 60 -14 14 -13 18 8 41 33 35 61 85 49 85 -6 0 -27 -22 -48 -50 -26 -35
-44 -50 -60 -50 -21 0 -23 5 -23 50 0 46 -7 60 -23 43z"/>
<path d="M2360 1795 l0 -115 70 0 c84 0 94 18 13 22 l-58 3 0 40 c0 40 0 40
45 46 36 5 39 7 15 9 -16 1 -37 3 -45 4 -11 1 -15 13 -15 41 l0 40 58 3 c78 4
63 22 -19 22 l-64 0 0 -115z"/>
<path d="M2630 1795 l0 -115 39 0 c52 0 87 14 101 40 26 49 -13 90 -85 90 -34
0 -35 1 -35 40 l0 40 60 0 c33 0 60 4 60 10 0 6 -30 10 -70 10 l-70 0 0 -115z
m108 -17 c18 -18 14 -56 -7 -68 -11 -5 -33 -10 -50 -10 -30 0 -31 1 -31 45 l0
45 38 0 c21 0 43 -5 50 -12z"/>
<path d="M2827 1903 c-4 -3 -7 -55 -7 -115 0 -88 3 -108 14 -108 11 0 16 15
18 53 3 48 5 52 27 52 19 0 27 -7 33 -31 10 -41 39 -65 85 -71 98 -13 150 132
72 203 -29 26 -100 26 -128 0 -12 -11 -25 -33 -29 -50 -6 -24 -15 -32 -35 -34
-26 -3 -27 -2 -27 52 0 52 -7 66 -23 49z m228 -38 c19 -18 25 -35 25 -70 0
-94 -95 -132 -135 -54 -19 36 -19 72 0 109 24 47 72 54 110 15z"/>
<path d="M3160 1796 c0 -66 4 -116 9 -116 6 0 11 19 13 43 3 42 3 42 47 48 54
7 85 40 76 78 -10 40 -27 52 -88 58 l-57 6 0 -117z m104 78 c19 -18 21 -55 4
-72 -7 -7 -29 -12 -50 -12 l-38 0 0 43 c0 24 3 47 7 50 12 13 62 7 77 -9z"/>
<path d="M3404 1900 c-38 -15 -64 -59 -64 -106 0 -124 172 -155 210 -38 32 95
-55 181 -146 144z m79 -22 c34 -18 46 -40 47 -84 0 -52 -24 -83 -70 -90 -26
-4 -42 -1 -61 15 -81 64 -6 207 84 159z"/>
<path d="M2007 1416 c-107 -30 -167 -115 -175 -246 -12 -209 82 -323 266 -322
97 0 150 21 200 78 83 93 94 281 24 393 -54 87 -195 131 -315 97z m163 -101
c47 -24 72 -84 72 -175 1 -124 -42 -187 -133 -197 -57 -6 -106 21 -133 73 -28
52 -29 192 -3 242 35 65 129 92 197 57z"/>
<path d="M257 1143 c-53 -153 -97 -282 -97 -286 0 -4 28 -7 61 -5 l62 3 20 68
20 68 106 -3 106 -3 20 -67 20 -68 63 0 c58 0 63 2 57 19 -3 10 -48 137 -99
282 l-93 264 -74 3 -74 3 -98 -278z m211 67 c18 -58 32 -109 32 -113 0 -4 -33
-7 -74 -7 l-73 0 36 119 c20 66 39 117 42 113 3 -4 20 -54 37 -112z"/>
<path d="M780 1135 l0 -285 55 0 55 0 0 125 0 125 115 0 115 0 0 -125 0 -125
60 0 60 0 0 285 0 285 -60 0 -60 0 0 -112 0 -113 -115 3 -115 3 0 110 0 109
-55 0 -55 0 0 -285z"/>
<path d="M1330 1370 l0 -50 80 0 80 0 0 -235 0 -236 55 3 56 3 2 232 2 233 78
0 77 0 0 50 0 50 -215 0 -215 0 0 -50z"/>
<path d="M2490 1135 l0 -285 60 0 60 0 0 125 0 126 113 -3 112 -3 3 -122 3
-123 54 0 55 0 0 285 0 285 -55 0 -54 0 -3 -111 -3 -110 -113 -2 -112 -2 0
113 0 112 -60 0 -60 0 0 -285z"/>
<path d="M3225 1408 c-2 -7 -45 -128 -94 -268 -49 -140 -92 -263 -96 -272 -6
-16 0 -18 57 -18 l65 0 19 68 20 67 106 3 107 3 21 -71 21 -70 63 0 63 0 -100
285 -101 285 -73 0 c-50 0 -75 -4 -78 -12z m155 -315 c0 -2 -34 -3 -75 -3 -41
0 -75 2 -75 4 0 1 4 16 10 32 5 16 21 70 36 119 l27 90 39 -120 c21 -66 38
-121 38 -122z"/>
<path d="M230 415 l0 -285 55 0 55 0 0 235 0 235 120 0 120 0 0 50 0 50 -175
0 -175 0 0 -285z"/>
<path d="M730 493 c-40 -115 -85 -243 -101 -285 l-28 -78 64 0 63 0 21 70 22
71 106 -3 106 -3 20 -67 20 -68 63 0 63 0 -53 152 c-30 84 -75 211 -100 283
-25 71 -46 131 -46 132 0 2 -33 3 -74 3 l-73 0 -73 -207z m186 -3 c19 -62 32
-115 30 -117 -2 -2 -35 -3 -73 -1 l-70 3 35 117 c20 65 37 116 39 114 2 -2 20
-54 39 -116z"/>
<path d="M1230 416 l0 -286 118 0 c137 1 194 12 240 47 40 30 54 62 53 126 0
57 -21 95 -62 110 -35 14 -36 20 -4 35 37 17 58 67 53 124 -10 96 -57 119
-255 126 l-143 5 0 -287z m258 168 c26 -18 30 -65 7 -88 -19 -18 -68 -29 -116
-24 l-34 3 -3 63 -3 62 63 0 c41 0 71 -5 86 -16z m-5 -215 c30 -16 37 -28 37
-65 0 -55 -19 -68 -104 -72 l-76 -4 0 76 0 76 61 0 c33 0 70 -5 82 -11z"/>
<path d="M1760 416 l0 -286 60 0 59 0 3 103 3 102 75 5 c132 10 182 56 188
173 3 62 1 77 -20 107 -40 60 -84 74 -235 78 l-133 4 0 -286z m247 169 c12 -8
24 -28 28 -43 14 -64 -35 -112 -115 -112 l-40 0 0 85 0 85 53 0 c31 0 61 -6
74 -15z"/>
<path d="M2270 415 l0 -285 69 0 69 0 126 207 c69 115 130 214 134 221 5 8 7
-80 4 -207 l-5 -221 57 0 56 0 0 285 0 285 -72 0 -73 0 -130 -215 -130 -214
-3 214 -2 215 -50 0 -50 0 0 -285z"/>
<path d="M2920 415 l0 -285 60 0 59 0 3 146 3 145 103 -145 104 -146 64 0 c50
0 63 3 58 13 -4 6 -52 72 -106 145 -54 73 -98 135 -98 138 0 5 90 127 193 262
7 9 -4 12 -52 12 l-61 0 -103 -137 -102 -138 -3 138 -3 137 -59 0 -60 0 0
-285z"/>
<path d="M3585 688 c-2 -7 -45 -128 -94 -268 -49 -140 -92 -263 -96 -272 -6
-16 0 -18 57 -18 l65 0 19 68 20 67 106 3 107 3 21 -71 21 -70 63 0 63 0 -100
285 -101 285 -73 0 c-50 0 -75 -4 -78 -12z m155 -315 c0 -2 -34 -3 -75 -3 -41
0 -75 2 -75 4 0 1 4 16 10 32 5 16 21 70 36 119 l27 90 39 -120 c21 -66 38
-121 38 -122z"/>
</g>
</svg>
